<svg width="25" height="24" viewBox="0 0 25 24" fill="none" xmlns="http://www.w3.org/2000/svg">
<path d="M4.47738 9.84C4.5176 9.33881 4.74513 8.87115 5.11465 8.53017C5.48417 8.18918 5.96857 7.9999 6.47138 8H18.5294C19.0322 7.9999 19.5166 8.18918 19.8861 8.53017C20.2556 8.87115 20.4832 9.33881 20.5234 9.84L21.3264 19.84C21.3485 20.1152 21.3133 20.392 21.2232 20.6529C21.1331 20.9139 20.9899 21.1533 20.8027 21.3562C20.6155 21.5592 20.3883 21.7211 20.1354 21.8319C19.8825 21.9427 19.6095 21.9999 19.3334 22H5.66738C5.3913 21.9999 5.11823 21.9427 4.86536 21.8319C4.61249 21.7211 4.38529 21.5592 4.19808 21.3562C4.01086 21.1533 3.86768 20.9139 3.77755 20.6529C3.68742 20.392 3.65229 20.1152 3.67438 19.84L4.47738 9.84V9.84Z" stroke="#184A81" stroke-width="2" stroke-linecap="round" stroke-linejoin="round"/>
<path d="M16.5 11V6C16.5 4.93913 16.0786 3.92172 15.3284 3.17157C14.5783 2.42143 13.5609 2 12.5 2C11.4391 2 10.4217 2.42143 9.67157 3.17157C8.92143 3.92172 8.5 4.93913 8.5 6V11" stroke="#184A81" stroke-width="2" stroke-linecap="round" stroke-linejoin="round"/>
</svg>
