<svg width="764" height="36" viewBox="0 0 764 36" fill="none" xmlns="http://www.w3.org/2000/svg">
<rect x="0.5" y="0.5" width="763" height="35" rx="17.5" fill="#F2F3F5"/>
<rect width="138" height="36" fill="#184A81"/>
<path d="M13.6506 23H12.358L16.0966 12.8182H17.3693L21.108 23H19.8153L16.7727 14.429H16.6932L13.6506 23ZM14.1278 19.0227H19.3381V20.1165H14.1278V19.0227ZM23.7081 12.8182V23H22.5348V12.8182H23.7081ZM27.0304 12.8182V23H25.8571V12.8182H27.0304ZM36.2191 23.1591C35.5032 23.1591 34.8867 22.9901 34.3697 22.652C33.8526 22.3139 33.4549 21.8482 33.1765 21.255C32.8981 20.6617 32.7589 19.9839 32.7589 19.2216C32.7589 18.446 32.9014 17.7616 33.1864 17.1683C33.4748 16.5717 33.8758 16.1061 34.3896 15.7713C34.9066 15.4332 35.5098 15.2642 36.1992 15.2642C36.7362 15.2642 37.2201 15.3636 37.6509 15.5625C38.0818 15.7614 38.4348 16.0398 38.7099 16.3977C38.985 16.7557 39.1557 17.1733 39.2219 17.6506H38.0487C37.9592 17.3026 37.7603 16.9943 37.4521 16.7259C37.1471 16.4541 36.7362 16.3182 36.2191 16.3182C35.7617 16.3182 35.3607 16.4375 35.016 16.6761C34.6746 16.9115 34.4078 17.2446 34.2156 17.6754C34.0266 18.103 33.9322 18.6051 33.9322 19.1818C33.9322 19.7718 34.025 20.2855 34.2106 20.723C34.3995 21.1605 34.6647 21.5002 35.006 21.7422C35.3507 21.9841 35.7551 22.1051 36.2191 22.1051C36.524 22.1051 36.8008 22.0521 37.0494 21.946C37.2979 21.84 37.5084 21.6875 37.6808 21.4886C37.8531 21.2898 37.9757 21.0511 38.0487 20.7727H39.2219C39.1557 21.2235 38.9916 21.6295 38.7298 21.9908C38.4712 22.3487 38.1282 22.6338 37.7006 22.8459C37.2764 23.0547 36.7826 23.1591 36.2191 23.1591ZM43.1843 23.179C42.7004 23.179 42.2612 23.0878 41.8668 22.9055C41.4724 22.7199 41.1592 22.4531 40.9272 22.1051C40.6952 21.7538 40.5792 21.3295 40.5792 20.8324C40.5792 20.3949 40.6654 20.0402 40.8377 19.7685C41.0101 19.4934 41.2404 19.2779 41.5288 19.1222C41.8171 18.9664 42.1353 18.8504 42.4833 18.7741C42.8346 18.6946 43.1876 18.6316 43.5423 18.5852C44.0063 18.5256 44.3825 18.4808 44.6708 18.451C44.9625 18.4179 45.1746 18.3632 45.3072 18.2869C45.4431 18.2107 45.511 18.0781 45.511 17.8892V17.8494C45.511 17.3589 45.3768 16.9777 45.1083 16.706C44.8432 16.4342 44.4405 16.2983 43.9002 16.2983C43.3401 16.2983 42.9009 16.4209 42.5827 16.6662C42.2646 16.9115 42.0408 17.1733 41.9116 17.4517L40.7979 17.054C40.9968 16.59 41.262 16.2287 41.5934 15.9702C41.9281 15.7083 42.2927 15.526 42.6871 15.4233C43.0849 15.3172 43.476 15.2642 43.8604 15.2642C44.1057 15.2642 44.3874 15.294 44.7056 15.3537C45.0271 15.41 45.337 15.5277 45.6353 15.7067C45.9369 15.8857 46.1871 16.1558 46.386 16.517C46.5849 16.8783 46.6843 17.3622 46.6843 17.9688V23H45.511V21.9659H45.4513C45.3718 22.1316 45.2392 22.3089 45.0536 22.4979C44.868 22.6868 44.6211 22.8475 44.3129 22.9801C44.0046 23.1127 43.6284 23.179 43.1843 23.179ZM43.3633 22.125C43.8273 22.125 44.2184 22.0339 44.5366 21.8516C44.8581 21.6693 45.1 21.4339 45.2624 21.1456C45.4281 20.8572 45.511 20.554 45.511 20.2358V19.1619C45.4613 19.2216 45.3519 19.2763 45.1829 19.326C45.0172 19.3724 44.8249 19.4138 44.6062 19.4503C44.3907 19.4834 44.1803 19.5133 43.9748 19.5398C43.7726 19.563 43.6085 19.5829 43.4826 19.5994C43.1777 19.6392 42.8926 19.7038 42.6275 19.7933C42.3656 19.8795 42.1535 20.0104 41.9911 20.1861C41.832 20.3584 41.7525 20.5937 41.7525 20.892C41.7525 21.2997 41.9033 21.608 42.2049 21.8168C42.5098 22.0223 42.896 22.125 43.3633 22.125ZM52.1468 15.3636V16.358H48.1895V15.3636H52.1468ZM49.3429 13.5341H50.5162V20.8125C50.5162 21.1439 50.5642 21.3925 50.6603 21.5582C50.7598 21.7206 50.8857 21.83 51.0382 21.8864C51.194 21.9394 51.358 21.9659 51.5304 21.9659C51.6596 21.9659 51.7657 21.9593 51.8485 21.946C51.9314 21.9295 51.9977 21.9162 52.0474 21.9062L52.286 22.9602C52.2065 22.9901 52.0955 23.0199 51.9529 23.0497C51.8104 23.0829 51.6298 23.0994 51.411 23.0994C51.0796 23.0994 50.7548 23.0282 50.4366 22.8857C50.1217 22.7431 49.8599 22.526 49.6511 22.2344C49.4456 21.9427 49.3429 21.5748 49.3429 21.1307V13.5341ZM57.0314 23.1591C56.2956 23.1591 55.6609 22.9967 55.1273 22.6719C54.597 22.3438 54.1877 21.8864 53.8993 21.2997C53.6143 20.7098 53.4718 20.0237 53.4718 19.2415C53.4718 18.4593 53.6143 17.7699 53.8993 17.1733C54.1877 16.5734 54.5887 16.1061 55.1025 15.7713C55.6195 15.4332 56.2227 15.2642 56.9121 15.2642C57.3098 15.2642 57.7026 15.3305 58.0904 15.4631C58.4782 15.5956 58.8311 15.8111 59.1493 16.1094C59.4675 16.4044 59.7211 16.7955 59.91 17.2827C60.0989 17.7699 60.1934 18.3698 60.1934 19.0824V19.5795H54.307V18.5653H59.0002C59.0002 18.1345 58.914 17.75 58.7417 17.4119C58.5726 17.0739 58.3307 16.8071 58.0158 16.6115C57.7042 16.416 57.3364 16.3182 56.9121 16.3182C56.4448 16.3182 56.0404 16.4342 55.699 16.6662C55.361 16.8949 55.1008 17.1932 54.9185 17.5611C54.7362 17.929 54.6451 18.3234 54.6451 18.7443V19.4205C54.6451 19.9972 54.7445 20.486 54.9434 20.8871C55.1455 21.2848 55.4256 21.5881 55.7836 21.7969C56.1415 22.0024 56.5575 22.1051 57.0314 22.1051C57.3397 22.1051 57.6181 22.062 57.8667 21.9759C58.1185 21.8864 58.3356 21.7538 58.5179 21.5781C58.7002 21.3991 58.8411 21.1771 58.9405 20.9119L60.074 21.2301C59.9547 21.6146 59.7542 21.9527 59.4725 22.2443C59.1908 22.5327 58.8427 22.758 58.4284 22.9205C58.0141 23.0795 57.5485 23.1591 57.0314 23.1591ZM65.0605 26.0227C64.4938 26.0227 64.0066 25.9498 63.5989 25.804C63.1912 25.6615 62.8515 25.4725 62.5797 25.2372C62.3113 25.0052 62.0975 24.7566 61.9384 24.4915L62.873 23.8352C62.9791 23.9744 63.1133 24.1335 63.2757 24.3125C63.4382 24.4948 63.6602 24.6522 63.9419 24.7848C64.227 24.9207 64.5998 24.9886 65.0605 24.9886C65.677 24.9886 66.1858 24.8395 66.5868 24.5412C66.9879 24.2429 67.1884 23.7756 67.1884 23.1392V21.5881H67.089C67.0028 21.7273 66.8801 21.8996 66.7211 22.1051C66.5653 22.3073 66.3399 22.4879 66.0449 22.647C65.7533 22.8028 65.3588 22.8807 64.8617 22.8807C64.2452 22.8807 63.6917 22.7348 63.2012 22.4432C62.714 22.1515 62.3278 21.7273 62.0428 21.1705C61.7611 20.6136 61.6202 19.9375 61.6202 19.142C61.6202 18.3598 61.7578 17.6787 62.0328 17.0987C62.3079 16.5154 62.6908 16.0646 63.1813 15.7464C63.6718 15.425 64.2386 15.2642 64.8816 15.2642C65.3787 15.2642 65.7731 15.3471 66.0648 15.5128C66.3598 15.6752 66.5852 15.8608 66.7409 16.0696C66.9 16.2751 67.0227 16.4441 67.1088 16.5767H67.2282V15.3636H68.3617V23.2188C68.3617 23.875 68.2125 24.4086 67.9142 24.8196C67.6193 25.2339 67.2215 25.5372 66.7211 25.7294C66.2239 25.925 65.6704 26.0227 65.0605 26.0227ZM65.0208 21.8267C65.4914 21.8267 65.8891 21.719 66.214 21.5036C66.5388 21.2881 66.7857 20.9782 66.9547 20.5739C67.1238 20.1695 67.2083 19.6856 67.2083 19.1222C67.2083 18.572 67.1254 18.0864 66.9597 17.6655C66.794 17.2446 66.5487 16.9148 66.2239 16.6761C65.8991 16.4375 65.498 16.3182 65.0208 16.3182C64.5236 16.3182 64.1093 16.4441 63.7779 16.696C63.4498 16.9479 63.2028 17.286 63.0371 17.7102C62.8747 18.1345 62.7935 18.6051 62.7935 19.1222C62.7935 19.6525 62.8764 20.1214 63.0421 20.5291C63.2111 20.9335 63.4597 21.2517 63.7878 21.4837C64.1193 21.7124 64.5302 21.8267 65.0208 21.8267ZM73.6117 23.1591C72.9223 23.1591 72.3174 22.995 71.7971 22.6669C71.28 22.3388 70.8757 21.8797 70.584 21.2898C70.2956 20.6998 70.1515 20.0104 70.1515 19.2216C70.1515 18.4261 70.2956 17.7318 70.584 17.1385C70.8757 16.5452 71.28 16.0845 71.7971 15.7564C72.3174 15.4283 72.9223 15.2642 73.6117 15.2642C74.3011 15.2642 74.9043 15.4283 75.4213 15.7564C75.9417 16.0845 76.3461 16.5452 76.6344 17.1385C76.9261 17.7318 77.0719 18.4261 77.0719 19.2216C77.0719 20.0104 76.9261 20.6998 76.6344 21.2898C76.3461 21.8797 75.9417 22.3388 75.4213 22.6669C74.9043 22.995 74.3011 23.1591 73.6117 23.1591ZM73.6117 22.1051C74.1354 22.1051 74.5662 21.9709 74.9043 21.7024C75.2424 21.4339 75.4926 21.081 75.655 20.6435C75.8174 20.206 75.8986 19.732 75.8986 19.2216C75.8986 18.7112 75.8174 18.2356 75.655 17.7947C75.4926 17.3539 75.2424 16.9976 74.9043 16.7259C74.5662 16.4541 74.1354 16.3182 73.6117 16.3182C73.088 16.3182 72.6571 16.4541 72.3191 16.7259C71.981 16.9976 71.7308 17.3539 71.5684 17.7947C71.406 18.2356 71.3248 18.7112 71.3248 19.2216C71.3248 19.732 71.406 20.206 71.5684 20.6435C71.7308 21.081 71.981 21.4339 72.3191 21.7024C72.6571 21.9709 73.088 22.1051 73.6117 22.1051ZM78.8629 23V15.3636H79.9964V16.517H80.076C80.2152 16.1392 80.4671 15.8326 80.8317 15.5973C81.1963 15.362 81.6072 15.2443 82.0646 15.2443C82.1508 15.2443 82.2585 15.246 82.3878 15.2493C82.517 15.2526 82.6148 15.2576 82.6811 15.2642V16.4574C82.6413 16.4474 82.5502 16.4325 82.4077 16.4126C82.2685 16.3894 82.121 16.3778 81.9652 16.3778C81.594 16.3778 81.2625 16.4557 80.9709 16.6115C80.6825 16.764 80.4538 16.9761 80.2848 17.2479C80.1191 17.5163 80.0362 17.8229 80.0362 18.1676V23H78.8629ZM84.0719 23V15.3636H85.2452V23H84.0719ZM84.6685 14.0909C84.4398 14.0909 84.2426 14.013 84.0769 13.8572C83.9145 13.7015 83.8333 13.5142 83.8333 13.2955C83.8333 13.0767 83.9145 12.8894 84.0769 12.7337C84.2426 12.5779 84.4398 12.5 84.6685 12.5C84.8972 12.5 85.0927 12.5779 85.2551 12.7337C85.4209 12.8894 85.5037 13.0767 85.5037 13.2955C85.5037 13.5142 85.4209 13.7015 85.2551 13.8572C85.0927 14.013 84.8972 14.0909 84.6685 14.0909ZM90.5959 23.1591C89.8601 23.1591 89.2254 22.9967 88.6918 22.6719C88.1615 22.3438 87.7521 21.8864 87.4638 21.2997C87.1787 20.7098 87.0362 20.0237 87.0362 19.2415C87.0362 18.4593 87.1787 17.7699 87.4638 17.1733C87.7521 16.5734 88.1532 16.1061 88.6669 15.7713C89.1839 15.4332 89.7872 15.2642 90.4766 15.2642C90.8743 15.2642 91.267 15.3305 91.6548 15.4631C92.0426 15.5956 92.3956 15.8111 92.7138 16.1094C93.032 16.4044 93.2855 16.7955 93.4744 17.2827C93.6634 17.7699 93.7578 18.3698 93.7578 19.0824V19.5795H87.8714V18.5653H92.5646C92.5646 18.1345 92.4785 17.75 92.3061 17.4119C92.1371 17.0739 91.8951 16.8071 91.5803 16.6115C91.2687 16.416 90.9008 16.3182 90.4766 16.3182C90.0092 16.3182 89.6049 16.4342 89.2635 16.6662C88.9254 16.8949 88.6652 17.1932 88.483 17.5611C88.3007 17.929 88.2095 18.3234 88.2095 18.7443V19.4205C88.2095 19.9972 88.3089 20.486 88.5078 20.8871C88.71 21.2848 88.9901 21.5881 89.348 21.7969C89.706 22.0024 90.1219 22.1051 90.5959 22.1051C90.9041 22.1051 91.1825 22.062 91.4311 21.9759C91.683 21.8864 91.9001 21.7538 92.0824 21.5781C92.2647 21.3991 92.4055 21.1771 92.505 20.9119L93.6385 21.2301C93.5192 21.6146 93.3187 21.9527 93.0369 22.2443C92.7552 22.5327 92.4072 22.758 91.9929 22.9205C91.5786 23.0795 91.1129 23.1591 90.5959 23.1591ZM100.952 17.0739L99.8977 17.3722C99.8314 17.1965 99.7337 17.0258 99.6044 16.8601C99.4785 16.6911 99.3061 16.5518 99.0874 16.4425C98.8686 16.3331 98.5885 16.2784 98.2472 16.2784C97.7798 16.2784 97.3904 16.3861 97.0788 16.6016C96.7706 16.8137 96.6165 17.0838 96.6165 17.4119C96.6165 17.7036 96.7225 17.9339 96.9347 18.103C97.1468 18.272 97.4782 18.4129 97.929 18.5256L99.0625 18.804C99.7453 18.9697 100.254 19.2232 100.589 19.5646C100.924 19.9027 101.091 20.3385 101.091 20.8722C101.091 21.3097 100.965 21.7008 100.713 22.0455C100.464 22.3902 100.116 22.6619 99.669 22.8608C99.2216 23.0597 98.7012 23.1591 98.108 23.1591C97.3291 23.1591 96.6844 22.9901 96.174 22.652C95.6636 22.3139 95.3404 21.8201 95.2045 21.1705L96.3182 20.892C96.4242 21.303 96.6248 21.6113 96.9197 21.8168C97.218 22.0223 97.6075 22.125 98.0881 22.125C98.6349 22.125 99.0691 22.009 99.3906 21.777C99.7154 21.5417 99.8778 21.2599 99.8778 20.9318C99.8778 20.6667 99.785 20.4446 99.5994 20.2656C99.4138 20.0833 99.1288 19.9474 98.7443 19.858L97.4716 19.5597C96.7723 19.3939 96.2585 19.1371 95.9304 18.7891C95.6056 18.4377 95.4432 17.9986 95.4432 17.4716C95.4432 17.0407 95.5642 16.6596 95.8061 16.3281C96.0514 15.9967 96.3845 15.7365 96.8054 15.5476C97.2296 15.3587 97.7102 15.2642 98.2472 15.2642C99.0028 15.2642 99.5961 15.4299 100.027 15.7614C100.461 16.0928 100.769 16.5303 100.952 17.0739Z" fill="white"/>
<path d="M112.666 16L117.999 21.3333L123.333 16" stroke="white" stroke-width="2" stroke-linecap="round" stroke-linejoin="round"/>
<rect x="138" width="1" height="36" fill="#E6E8EA"/>
<path d="M157.801 15.3636C157.741 14.8598 157.5 14.4688 157.075 14.1903C156.651 13.9119 156.131 13.7727 155.514 13.7727C155.063 13.7727 154.669 13.8456 154.331 13.9915C153.996 14.1373 153.734 14.3378 153.545 14.593C153.36 14.8482 153.267 15.1383 153.267 15.4631C153.267 15.7348 153.332 15.9685 153.461 16.1641C153.594 16.3563 153.763 16.517 153.968 16.6463C154.174 16.7723 154.389 16.8767 154.614 16.9595C154.84 17.0391 155.047 17.1037 155.236 17.1534L156.27 17.4318C156.535 17.5014 156.83 17.5975 157.155 17.7202C157.483 17.8428 157.796 18.0102 158.094 18.2223C158.396 18.4311 158.645 18.6996 158.84 19.0277C159.036 19.3558 159.134 19.7585 159.134 20.2358C159.134 20.786 158.989 21.2831 158.701 21.7273C158.416 22.1714 157.998 22.5244 157.448 22.7862C156.901 23.0481 156.237 23.179 155.455 23.179C154.725 23.179 154.094 23.0613 153.56 22.826C153.03 22.5907 152.612 22.2625 152.308 21.8416C152.006 21.4207 151.835 20.9318 151.795 20.375H153.068C153.101 20.7595 153.231 21.0777 153.456 21.3295C153.685 21.5781 153.973 21.7637 154.321 21.8864C154.672 22.0057 155.05 22.0653 155.455 22.0653C155.925 22.0653 156.348 21.9891 156.722 21.8366C157.097 21.6809 157.393 21.4654 157.612 21.1903C157.831 20.9119 157.94 20.5871 157.94 20.2159C157.94 19.8778 157.846 19.6027 157.657 19.3906C157.468 19.1785 157.219 19.0062 156.911 18.8736C156.603 18.741 156.27 18.625 155.912 18.5256L154.659 18.1676C153.864 17.9389 153.234 17.6125 152.77 17.1882C152.306 16.764 152.074 16.2088 152.074 15.5227C152.074 14.9527 152.228 14.4555 152.536 14.0312C152.848 13.6037 153.265 13.2723 153.789 13.0369C154.316 12.7983 154.904 12.679 155.554 12.679C156.21 12.679 156.794 12.7966 157.304 13.032C157.814 13.264 158.219 13.5821 158.517 13.9865C158.819 14.3909 158.978 14.8499 158.994 15.3636H157.801ZM164.203 23.1591C163.468 23.1591 162.833 22.9967 162.299 22.6719C161.769 22.3438 161.36 21.8864 161.071 21.2997C160.786 20.7098 160.644 20.0237 160.644 19.2415C160.644 18.4593 160.786 17.7699 161.071 17.1733C161.36 16.5734 161.761 16.1061 162.274 15.7713C162.791 15.4332 163.395 15.2642 164.084 15.2642C164.482 15.2642 164.874 15.3305 165.262 15.4631C165.65 15.5956 166.003 15.8111 166.321 16.1094C166.639 16.4044 166.893 16.7955 167.082 17.2827C167.271 17.7699 167.365 18.3698 167.365 19.0824V19.5795H161.479V18.5653H166.172C166.172 18.1345 166.086 17.75 165.914 17.4119C165.744 17.0739 165.503 16.8071 165.188 16.6115C164.876 16.416 164.508 16.3182 164.084 16.3182C163.617 16.3182 163.212 16.4342 162.871 16.6662C162.533 16.8949 162.273 17.1932 162.09 17.5611C161.908 17.929 161.817 18.3234 161.817 18.7443V19.4205C161.817 19.9972 161.916 20.486 162.115 20.8871C162.317 21.2848 162.597 21.5881 162.955 21.7969C163.313 22.0024 163.729 22.1051 164.203 22.1051C164.512 22.1051 164.79 22.062 165.039 21.9759C165.29 21.8864 165.508 21.7538 165.69 21.5781C165.872 21.3991 166.013 21.1771 166.112 20.9119L167.246 21.2301C167.127 21.6146 166.926 21.9527 166.644 22.2443C166.363 22.5327 166.015 22.758 165.6 22.9205C165.186 23.0795 164.72 23.1591 164.203 23.1591ZM171.397 23.179C170.913 23.179 170.474 23.0878 170.08 22.9055C169.685 22.7199 169.372 22.4531 169.14 22.1051C168.908 21.7538 168.792 21.3295 168.792 20.8324C168.792 20.3949 168.878 20.0402 169.051 19.7685C169.223 19.4934 169.453 19.2779 169.742 19.1222C170.03 18.9664 170.348 18.8504 170.696 18.7741C171.048 18.6946 171.401 18.6316 171.755 18.5852C172.219 18.5256 172.595 18.4808 172.884 18.451C173.175 18.4179 173.387 18.3632 173.52 18.2869C173.656 18.2107 173.724 18.0781 173.724 17.8892V17.8494C173.724 17.3589 173.59 16.9777 173.321 16.706C173.056 16.4342 172.653 16.2983 172.113 16.2983C171.553 16.2983 171.114 16.4209 170.796 16.6662C170.477 16.9115 170.254 17.1733 170.124 17.4517L169.011 17.054C169.21 16.59 169.475 16.2287 169.806 15.9702C170.141 15.7083 170.506 15.526 170.9 15.4233C171.298 15.3172 171.689 15.2642 172.073 15.2642C172.319 15.2642 172.6 15.294 172.919 15.3537C173.24 15.41 173.55 15.5277 173.848 15.7067C174.15 15.8857 174.4 16.1558 174.599 16.517C174.798 16.8783 174.897 17.3622 174.897 17.9688V23H173.724V21.9659H173.664C173.585 22.1316 173.452 22.3089 173.267 22.4979C173.081 22.6868 172.834 22.8475 172.526 22.9801C172.218 23.1127 171.841 23.179 171.397 23.179ZM171.576 22.125C172.04 22.125 172.431 22.0339 172.749 21.8516C173.071 21.6693 173.313 21.4339 173.475 21.1456C173.641 20.8572 173.724 20.554 173.724 20.2358V19.1619C173.674 19.2216 173.565 19.2763 173.396 19.326C173.23 19.3724 173.038 19.4138 172.819 19.4503C172.604 19.4834 172.393 19.5133 172.188 19.5398C171.985 19.563 171.821 19.5829 171.695 19.5994C171.391 19.6392 171.106 19.7038 170.84 19.7933C170.579 19.8795 170.366 20.0104 170.204 20.1861C170.045 20.3584 169.965 20.5937 169.965 20.892C169.965 21.2997 170.116 21.608 170.418 21.8168C170.723 22.0223 171.109 22.125 171.576 22.125ZM177.039 23V15.3636H178.172V16.517H178.252C178.391 16.1392 178.643 15.8326 179.007 15.5973C179.372 15.362 179.783 15.2443 180.24 15.2443C180.327 15.2443 180.434 15.246 180.564 15.2493C180.693 15.2526 180.791 15.2576 180.857 15.2642V16.4574C180.817 16.4474 180.726 16.4325 180.583 16.4126C180.444 16.3894 180.297 16.3778 180.141 16.3778C179.77 16.3778 179.438 16.4557 179.147 16.6115C178.858 16.764 178.63 16.9761 178.461 17.2479C178.295 17.5163 178.212 17.8229 178.212 18.1676V23H177.039ZM185.118 23.1591C184.402 23.1591 183.785 22.9901 183.268 22.652C182.751 22.3139 182.353 21.8482 182.075 21.255C181.797 20.6617 181.657 19.9839 181.657 19.2216C181.657 18.446 181.8 17.7616 182.085 17.1683C182.373 16.5717 182.774 16.1061 183.288 15.7713C183.805 15.4332 184.408 15.2642 185.098 15.2642C185.635 15.2642 186.118 15.3636 186.549 15.5625C186.98 15.7614 187.333 16.0398 187.608 16.3977C187.883 16.7557 188.054 17.1733 188.12 17.6506H186.947C186.858 17.3026 186.659 16.9943 186.35 16.7259C186.046 16.4541 185.635 16.3182 185.118 16.3182C184.66 16.3182 184.259 16.4375 183.914 16.6761C183.573 16.9115 183.306 17.2446 183.114 17.6754C182.925 18.103 182.831 18.6051 182.831 19.1818C182.831 19.7718 182.923 20.2855 183.109 20.723C183.298 21.1605 183.563 21.5002 183.904 21.7422C184.249 21.9841 184.654 22.1051 185.118 22.1051C185.422 22.1051 185.699 22.0521 185.948 21.946C186.196 21.84 186.407 21.6875 186.579 21.4886C186.752 21.2898 186.874 21.0511 186.947 20.7727H188.12C188.054 21.2235 187.89 21.6295 187.628 21.9908C187.37 22.3487 187.027 22.6338 186.599 22.8459C186.175 23.0547 185.681 23.1591 185.118 23.1591ZM191.009 18.4062V23H189.836V12.8182H191.009V16.5568H191.108C191.287 16.1624 191.556 15.8492 191.914 15.6172C192.275 15.3819 192.756 15.2642 193.355 15.2642C193.876 15.2642 194.332 15.3686 194.723 15.5774C195.114 15.7829 195.417 16.0994 195.632 16.527C195.851 16.9512 195.961 17.4915 195.961 18.1477V23H194.787V18.2273C194.787 17.6207 194.63 17.1518 194.315 16.8203C194.003 16.4856 193.571 16.3182 193.017 16.3182C192.633 16.3182 192.288 16.3994 191.983 16.5618C191.682 16.7242 191.443 16.9612 191.267 17.2727C191.095 17.5843 191.009 17.9621 191.009 18.4062ZM205.445 15.3636V16.358H201.329V15.3636H205.445ZM202.562 23V14.3097C202.562 13.8722 202.664 13.5076 202.87 13.2159C203.075 12.9242 203.342 12.7055 203.67 12.5597C203.998 12.4138 204.345 12.3409 204.709 12.3409C204.998 12.3409 205.233 12.3641 205.415 12.4105C205.598 12.4569 205.733 12.5 205.823 12.5398L205.485 13.554C205.425 13.5341 205.342 13.5092 205.236 13.4794C205.134 13.4496 204.998 13.4347 204.829 13.4347C204.441 13.4347 204.161 13.5324 203.988 13.728C203.819 13.9235 203.735 14.2102 203.735 14.5881V23H202.562ZM209.877 23.1591C209.188 23.1591 208.583 22.995 208.063 22.6669C207.546 22.3388 207.141 21.8797 206.85 21.2898C206.561 20.6998 206.417 20.0104 206.417 19.2216C206.417 18.4261 206.561 17.7318 206.85 17.1385C207.141 16.5452 207.546 16.0845 208.063 15.7564C208.583 15.4283 209.188 15.2642 209.877 15.2642C210.567 15.2642 211.17 15.4283 211.687 15.7564C212.207 16.0845 212.612 16.5452 212.9 17.1385C213.192 17.7318 213.338 18.4261 213.338 19.2216C213.338 20.0104 213.192 20.6998 212.9 21.2898C212.612 21.8797 212.207 22.3388 211.687 22.6669C211.17 22.995 210.567 23.1591 209.877 23.1591ZM209.877 22.1051C210.401 22.1051 210.832 21.9709 211.17 21.7024C211.508 21.4339 211.758 21.081 211.921 20.6435C212.083 20.206 212.164 19.732 212.164 19.2216C212.164 18.7112 212.083 18.2356 211.921 17.7947C211.758 17.3539 211.508 16.9976 211.17 16.7259C210.832 16.4541 210.401 16.3182 209.877 16.3182C209.354 16.3182 208.923 16.4541 208.585 16.7259C208.247 16.9976 207.996 17.3539 207.834 17.7947C207.672 18.2356 207.59 18.7112 207.59 19.2216C207.59 19.732 207.672 20.206 207.834 20.6435C207.996 21.081 208.247 21.4339 208.585 21.7024C208.923 21.9709 209.354 22.1051 209.877 22.1051ZM215.129 23V15.3636H216.262V16.517H216.342C216.481 16.1392 216.733 15.8326 217.097 15.5973C217.462 15.362 217.873 15.2443 218.33 15.2443C218.416 15.2443 218.524 15.246 218.653 15.2493C218.783 15.2526 218.88 15.2576 218.947 15.2642V16.4574C218.907 16.4474 218.816 16.4325 218.673 16.4126C218.534 16.3894 218.387 16.3778 218.231 16.3778C217.86 16.3778 217.528 16.4557 217.237 16.6115C216.948 16.764 216.719 16.9761 216.55 17.2479C216.385 17.5163 216.302 17.8229 216.302 18.1676V23H215.129ZM226.522 23.179C226.038 23.179 225.599 23.0878 225.205 22.9055C224.81 22.7199 224.497 22.4531 224.265 22.1051C224.033 21.7538 223.917 21.3295 223.917 20.8324C223.917 20.3949 224.003 20.0402 224.176 19.7685C224.348 19.4934 224.578 19.2779 224.867 19.1222C225.155 18.9664 225.473 18.8504 225.821 18.7741C226.173 18.6946 226.526 18.6316 226.88 18.5852C227.344 18.5256 227.72 18.4808 228.009 18.451C228.3 18.4179 228.512 18.3632 228.645 18.2869C228.781 18.2107 228.849 18.0781 228.849 17.8892V17.8494C228.849 17.3589 228.715 16.9777 228.446 16.706C228.181 16.4342 227.778 16.2983 227.238 16.2983C226.678 16.2983 226.239 16.4209 225.921 16.6662C225.602 16.9115 225.379 17.1733 225.249 17.4517L224.136 17.054C224.335 16.59 224.6 16.2287 224.931 15.9702C225.266 15.7083 225.631 15.526 226.025 15.4233C226.423 15.3172 226.814 15.2642 227.198 15.2642C227.444 15.2642 227.725 15.294 228.044 15.3537C228.365 15.41 228.675 15.5277 228.973 15.7067C229.275 15.8857 229.525 16.1558 229.724 16.517C229.923 16.8783 230.022 17.3622 230.022 17.9688V23H228.849V21.9659H228.789C228.71 22.1316 228.577 22.3089 228.392 22.4979C228.206 22.6868 227.959 22.8475 227.651 22.9801C227.343 23.1127 226.966 23.179 226.522 23.179ZM226.701 22.125C227.165 22.125 227.556 22.0339 227.874 21.8516C228.196 21.6693 228.438 21.4339 228.6 21.1456C228.766 20.8572 228.849 20.554 228.849 20.2358V19.1619C228.799 19.2216 228.69 19.2763 228.521 19.326C228.355 19.3724 228.163 19.4138 227.944 19.4503C227.729 19.4834 227.518 19.5133 227.313 19.5398C227.11 19.563 226.946 19.5829 226.82 19.5994C226.516 19.6392 226.231 19.7038 225.965 19.7933C225.704 19.8795 225.491 20.0104 225.329 20.1861C225.17 20.3584 225.09 20.5937 225.09 20.892C225.09 21.2997 225.241 21.608 225.543 21.8168C225.848 22.0223 226.234 22.125 226.701 22.125ZM233.337 18.4062V23H232.164V15.3636H233.297V16.5568H233.397C233.576 16.169 233.847 15.8575 234.212 15.6222C234.577 15.3835 235.047 15.2642 235.624 15.2642C236.141 15.2642 236.593 15.3703 236.981 15.5824C237.369 15.7912 237.671 16.1094 237.886 16.5369C238.101 16.9612 238.209 17.4981 238.209 18.1477V23H237.036V18.2273C237.036 17.6274 236.88 17.16 236.569 16.8253C236.257 16.4872 235.829 16.3182 235.286 16.3182C234.911 16.3182 234.577 16.3994 234.282 16.5618C233.99 16.7242 233.76 16.9612 233.591 17.2727C233.422 17.5843 233.337 17.9621 233.337 18.4062ZM240.835 25.8636C240.637 25.8636 240.459 25.8471 240.303 25.8139C240.148 25.7841 240.04 25.7543 239.98 25.7244L240.279 24.6903C240.564 24.7633 240.816 24.7898 241.034 24.7699C241.253 24.75 241.447 24.6522 241.616 24.4766C241.788 24.3042 241.946 24.0241 242.088 23.6364L242.307 23.0398L239.483 15.3636H240.756L242.864 21.4489H242.943L245.051 15.3636H246.324L243.083 24.1136C242.937 24.508 242.756 24.8345 242.541 25.093C242.325 25.3549 242.075 25.5488 241.79 25.6747C241.508 25.8007 241.19 25.8636 240.835 25.8636ZM251.194 15.3636V16.358H247.236V15.3636H251.194ZM248.39 13.5341H249.563V20.8125C249.563 21.1439 249.611 21.3925 249.707 21.5582C249.807 21.7206 249.933 21.83 250.085 21.8864C250.241 21.9394 250.405 21.9659 250.577 21.9659C250.706 21.9659 250.813 21.9593 250.895 21.946C250.978 21.9295 251.045 21.9162 251.094 21.9062L251.333 22.9602C251.253 22.9901 251.142 23.0199 251 23.0497C250.857 23.0829 250.677 23.0994 250.458 23.0994C250.126 23.0994 249.802 23.0282 249.483 22.8857C249.169 22.7431 248.907 22.526 248.698 22.2344C248.492 21.9427 248.39 21.5748 248.39 21.1307V13.5341ZM254.296 18.4062V23H253.123V12.8182H254.296V16.5568H254.395C254.574 16.1624 254.843 15.8492 255.201 15.6172C255.562 15.3819 256.043 15.2642 256.643 15.2642C257.163 15.2642 257.619 15.3686 258.01 15.5774C258.401 15.7829 258.704 16.0994 258.92 16.527C259.138 16.9512 259.248 17.4915 259.248 18.1477V23H258.074V18.2273C258.074 17.6207 257.917 17.1518 257.602 16.8203C257.291 16.4856 256.858 16.3182 256.305 16.3182C255.92 16.3182 255.575 16.3994 255.27 16.5618C254.969 16.7242 254.73 16.9612 254.555 17.2727C254.382 17.5843 254.296 17.9621 254.296 18.4062ZM261.394 23V15.3636H262.567V23H261.394ZM261.991 14.0909C261.762 14.0909 261.565 14.013 261.399 13.8572C261.237 13.7015 261.156 13.5142 261.156 13.2955C261.156 13.0767 261.237 12.8894 261.399 12.7337C261.565 12.5779 261.762 12.5 261.991 12.5C262.219 12.5 262.415 12.5779 262.577 12.7337C262.743 12.8894 262.826 13.0767 262.826 13.2955C262.826 13.5142 262.743 13.7015 262.577 13.8572C262.415 14.013 262.219 14.0909 261.991 14.0909ZM265.89 18.4062V23H264.716V15.3636H265.85V16.5568H265.949C266.128 16.169 266.4 15.8575 266.765 15.6222C267.129 15.3835 267.6 15.2642 268.177 15.2642C268.694 15.2642 269.146 15.3703 269.534 15.5824C269.922 15.7912 270.223 16.1094 270.439 16.5369C270.654 16.9612 270.762 17.4981 270.762 18.1477V23H269.589V18.2273C269.589 17.6274 269.433 17.16 269.121 16.8253C268.81 16.4872 268.382 16.3182 267.839 16.3182C267.464 16.3182 267.129 16.3994 266.834 16.5618C266.543 16.7242 266.312 16.9612 266.143 17.2727C265.974 17.5843 265.89 17.9621 265.89 18.4062ZM275.988 26.0227C275.422 26.0227 274.934 25.9498 274.527 25.804C274.119 25.6615 273.779 25.4725 273.507 25.2372C273.239 25.0052 273.025 24.7566 272.866 24.4915L273.801 23.8352C273.907 23.9744 274.041 24.1335 274.203 24.3125C274.366 24.4948 274.588 24.6522 274.87 24.7848C275.155 24.9207 275.528 24.9886 275.988 24.9886C276.605 24.9886 277.114 24.8395 277.515 24.5412C277.916 24.2429 278.116 23.7756 278.116 23.1392V21.5881H278.017C277.931 21.7273 277.808 21.8996 277.649 22.1051C277.493 22.3073 277.268 22.4879 276.973 22.647C276.681 22.8028 276.287 22.8807 275.789 22.8807C275.173 22.8807 274.619 22.7348 274.129 22.4432C273.642 22.1515 273.256 21.7273 272.971 21.1705C272.689 20.6136 272.548 19.9375 272.548 19.142C272.548 18.3598 272.685 17.6787 272.961 17.0987C273.236 16.5154 273.618 16.0646 274.109 15.7464C274.6 15.425 275.166 15.2642 275.809 15.2642C276.306 15.2642 276.701 15.3471 276.993 15.5128C277.288 15.6752 277.513 15.8608 277.669 16.0696C277.828 16.2751 277.95 16.4441 278.037 16.5767H278.156V15.3636H279.289V23.2188C279.289 23.875 279.14 24.4086 278.842 24.8196C278.547 25.2339 278.149 25.5372 277.649 25.7294C277.152 25.925 276.598 26.0227 275.988 26.0227ZM275.949 21.8267C276.419 21.8267 276.817 21.719 277.142 21.5036C277.467 21.2881 277.713 20.9782 277.882 20.5739C278.051 20.1695 278.136 19.6856 278.136 19.1222C278.136 18.572 278.053 18.0864 277.887 17.6655C277.722 17.2446 277.476 16.9148 277.152 16.6761C276.827 16.4375 276.426 16.3182 275.949 16.3182C275.451 16.3182 275.037 16.4441 274.706 16.696C274.377 16.9479 274.131 17.286 273.965 17.7102C273.802 18.1345 273.721 18.6051 273.721 19.1222C273.721 19.6525 273.804 20.1214 273.97 20.5291C274.139 20.9335 274.387 21.2517 274.716 21.4837C275.047 21.7124 275.458 21.8267 275.949 21.8267Z" fill="#818B95"/>
<path d="M749.499 25.5003L745.761 21.7553L749.499 25.5003ZM747.833 16.7503C747.833 18.6289 747.086 20.4306 745.758 21.759C744.43 23.0874 742.628 23.8337 740.749 23.8337C738.871 23.8337 737.069 23.0874 735.741 21.759C734.412 20.4306 733.666 18.6289 733.666 16.7503C733.666 14.8717 734.412 13.07 735.741 11.7417C737.069 10.4133 738.871 9.66699 740.749 9.66699C742.628 9.66699 744.43 10.4133 745.758 11.7417C747.086 13.07 747.833 14.8717 747.833 16.7503V16.7503Z" stroke="#818B95" stroke-width="1.5" stroke-linecap="round" stroke-linejoin="round"/>
<rect x="0.5" y="0.5" width="763" height="35" rx="17.5" stroke="#E6E8EA"/>
</svg>
